<svg width="24" height="24" viewBox="0 0 24 24" fill="none" xmlns="http://www.w3.org/2000/svg">
<path d="M16.55 13C17.3 13 17.96 12.59 18.3 11.97L21.88 5.48C22.25 4.82 21.77 4 21.01 4H6.21L5.27 2H2V4H4L7.6 11.59L6.25 14.03C5.52 15.37 6.48 17 8 17H20V15H8L9.1 13H16.55ZM7.16 6H19.31L16.55 11H9.53L7.16 6Z" fill="white" fill-opacity="0.8"/>
<path d="M8.00013 18C6.90013 18 6.01013 18.9 6.01013 20C6.01013 21.1 6.90013 22 8.00013 22C9.10013 22 10.0001 21.1 10.0001 20C10.0001 18.9 9.10013 18 8.00013 18Z" fill="white" fill-opacity="0.8"/>
<path d="M18.0001 18C16.9001 18 16.0101 18.9 16.0101 20C16.0101 21.1 16.9001 22 18.0001 22C19.1001 22 20.0001 21.1 20.0001 20C20.0001 18.9 19.1001 18 18.0001 18Z" fill="white" fill-opacity="0.8"/>
</svg>
