<?xml version="1.0" encoding="UTF-8"?>
<svg fill="none" version="1.1" viewBox="0 0 24 24" xmlns="http://www.w3.org/2000/svg" xmlns:cc="http://creativecommons.org/ns#" xmlns:dc="http://purl.org/dc/elements/1.1/" xmlns:rdf="http://www.w3.org/1999/02/22-rdf-syntax-ns#">
<metadata>
<rdf:RDF>
<cc:Work rdf:about="">
<dc:format>image/svg+xml</dc:format>
<dc:type rdf:resource="http://purl.org/dc/dcmitype/StillImage"/>
</cc:Work>
</rdf:RDF>
</metadata>
<path d="M16.55 13C17.3 13 17.96 12.59 18.3 11.97L21.88 5.48C22.25 4.82 21.77 4 21.01 4H6.21L5.27 2H2V4H4L7.6 11.59L6.25 14.03C5.52 15.37 6.48 17 8 17H20V15H8L9.1 13H16.55ZM7.16 6H19.31L16.55 11H9.53L7.16 6Z" fill="#fff"/>
<path d="m8.0001 18c-1.1 0-1.99 0.9-1.99 2s0.89 2 1.99 2 2-0.9 2-2-0.89997-2-2-2z" fill="#fff"/>
<path d="m18 18c-1.1 0-1.99 0.9-1.99 2s0.89 2 1.99 2 2-0.9 2-2-0.9-2-2-2z" fill="#fff"/>
</svg>