<svg width="60" height="60" viewBox="0 0 60 60" fill="none" xmlns="http://www.w3.org/2000/svg">
<path d="M14.05 27.475C17.65 34.55 23.45 40.325 30.525 43.95L36.025 38.45C36.7 37.775 37.7 37.55 38.575 37.85C41.375 38.775 44.4 39.275 47.5 39.275C48.875 39.275 50 40.4 50 41.775V50.5C50 51.875 48.875 53 47.5 53C24.025 53 5 33.975 5 10.5C5 9.125 6.125 8 7.5 8H16.25C17.625 8 18.75 9.125 18.75 10.5C18.75 13.625 19.25 16.625 20.175 19.425C20.45 20.3 20.25 21.275 19.55 21.975L14.05 27.475Z" fill="white" fill-opacity="0.8"/>
</svg>
